<svg width="22" height="11" viewBox="0 0 22 11" fill="none" xmlns="http://www.w3.org/2000/svg">
<path d="M1.43955 0.454805C1.27638 0.0740823 0.835474 -0.102281 0.454751 0.0608854C0.0740289 0.224052 -0.102335 0.664961 0.060832 1.04568L0.750191 0.750244L1.43955 0.454805ZM14.3374 7.07894L14.0627 6.38106V6.38106L14.3374 7.07894ZM7.79164 7.48798C8.01755 7.1408 7.91923 6.67621 7.57204 6.45031C7.22485 6.2244 6.76027 6.32272 6.53436 6.66991L7.163 7.07895L7.79164 7.48798ZM5.12155 8.84121C4.89565 9.18839 4.99396 9.65298 5.34115 9.87888C5.68834 10.1048 6.15292 10.0065 6.37883 9.65928L5.75019 9.25025L5.12155 8.84121ZM21.4396 1.04568C21.6027 0.664961 21.4264 0.224052 21.0456 0.0608853C20.6649 -0.102281 20.224 0.0740824 20.0608 0.454805L20.7502 0.750244L21.4396 1.04568ZM17.7502 4.87908L17.2369 4.33223V4.33223L17.7502 4.87908ZM18.7199 6.90941C19.0128 7.20231 19.4876 7.20231 19.7805 6.90941C20.0734 6.61652 20.0734 6.14165 19.7805 5.84875L19.2502 6.37908L18.7199 6.90941ZM10.0002 10.2502C10.0002 10.6645 10.336 11.0002 10.7502 11.0002C11.1644 11.0002 11.5002 10.6645 11.5002 10.2502H10.7502H10.0002ZM15.1216 9.65928C15.3475 10.0065 15.812 10.1048 16.1592 9.87888C16.5064 9.65298 16.6047 9.18839 16.3788 8.8412L15.7502 9.25024L15.1216 9.65928ZM4.28052 5.40941C4.57341 5.11652 4.57341 4.64164 4.28052 4.34875C3.98763 4.05586 3.51275 4.05586 3.21986 4.34875L3.75019 4.87908L4.28052 5.40941ZM1.71986 5.84875C1.42697 6.14164 1.42697 6.61652 1.71986 6.90941C2.01275 7.2023 2.48763 7.2023 2.78052 6.90941L2.25019 6.37908L1.71986 5.84875ZM10.7502 7.75024V7.00024C7.5263 7.00024 5.21152 5.39485 3.67479 3.73991C2.90664 2.91267 2.34344 2.08308 1.97279 1.46038C1.78788 1.14974 1.65206 0.89256 1.56359 0.715615C1.51938 0.627199 1.48708 0.558991 1.46647 0.514358C1.45616 0.492047 1.44878 0.475645 1.4443 0.465574C1.44206 0.460539 1.44055 0.457089 1.43976 0.455276C1.43936 0.45437 1.43915 0.453873 1.43911 0.453792C1.4391 0.453751 1.43912 0.453815 1.4392 0.453984C1.43923 0.454068 1.43932 0.454273 1.43934 0.454315C1.43944 0.454547 1.43955 0.454805 0.750191 0.750244C0.060832 1.04568 0.0609655 1.046 0.0611107 1.04633C0.0611745 1.04648 0.0613316 1.04685 0.0614594 1.04714C0.0617151 1.04774 0.0620176 1.04844 0.0623668 1.04925C0.0630652 1.05086 0.0639507 1.0529 0.0650237 1.05536C0.0671695 1.06028 0.0700659 1.06687 0.0737168 1.07508C0.081018 1.09149 0.0913404 1.1144 0.104717 1.14336C0.131464 1.20126 0.170453 1.28345 0.221948 1.38644C0.324883 1.5923 0.478126 1.882 0.683846 2.22761C1.09444 2.91741 1.71874 3.83781 2.5756 4.76058C4.28886 6.60564 6.97408 8.50024 10.7502 8.50024V7.75024ZM14.3374 7.07894L14.0627 6.38106C13.0923 6.76301 11.9919 7.00024 10.7502 7.00024V7.75024V8.50024C12.1884 8.50024 13.4748 8.22448 14.6121 7.77683L14.3374 7.07894ZM7.163 7.07895L6.53436 6.66991L5.12155 8.84121L5.75019 9.25025L6.37883 9.65928L7.79164 7.48798L7.163 7.07895ZM20.7502 0.750244C20.0608 0.454805 20.0609 0.454654 20.061 0.454511C20.061 0.454475 20.061 0.45434 20.0611 0.454267C20.0611 0.454121 20.0612 0.454008 20.0612 0.453927C20.0613 0.453767 20.0613 0.453738 20.0612 0.453839C20.0612 0.454042 20.0608 0.454766 20.0603 0.456002C20.0592 0.458474 20.0572 0.462993 20.0543 0.469485C20.0485 0.48247 20.0391 0.503336 20.026 0.53149C19.9997 0.587813 19.9588 0.673198 19.9028 0.782913C19.7908 1.00251 19.6192 1.31855 19.3856 1.69345C18.9171 2.4454 18.2064 3.42221 17.2369 4.33223L17.7502 4.87908L18.2635 5.42593C19.3525 4.40373 20.1419 3.31612 20.6587 2.48671C20.9178 2.07092 21.1102 1.71705 21.2391 1.4644C21.3035 1.33799 21.3522 1.23667 21.3855 1.16532C21.4021 1.12963 21.4149 1.10142 21.4239 1.08128C21.4284 1.07122 21.4319 1.06317 21.4346 1.05721C21.4359 1.05423 21.4369 1.05177 21.4378 1.04985C21.4382 1.04889 21.4385 1.04806 21.4388 1.04736C21.439 1.04702 21.4391 1.0467 21.4392 1.04642C21.4393 1.04628 21.4394 1.0461 21.4394 1.04603C21.4395 1.04585 21.4396 1.04568 20.7502 0.750244ZM17.7502 4.87908L17.2369 4.33223C16.3779 5.13849 15.3241 5.88457 14.0627 6.38106L14.3374 7.07894L14.6121 7.77683C16.0857 7.19681 17.2968 6.33326 18.2635 5.42593L17.7502 4.87908ZM17.7502 4.87908L17.2199 5.40941L18.7199 6.90941L19.2502 6.37908L19.7805 5.84875L18.2805 4.34875L17.7502 4.87908ZM10.7502 7.75024H10.0002V10.2502H10.7502H11.5002V7.75024H10.7502ZM14.3374 7.07894L13.7087 7.48798L15.1216 9.65928L15.7502 9.25024L16.3788 8.8412L14.966 6.6699L14.3374 7.07894ZM3.75019 4.87908L3.21986 4.34875L1.71986 5.84875L2.25019 6.37908L2.78052 6.90941L4.28052 5.40941L3.75019 4.87908Z" fill="#1C274C"/>
</svg>
