<svg width="34" height="35" viewBox="0 0 34 35" fill="none" xmlns="http://www.w3.org/2000/svg">
<path fill-rule="evenodd" clip-rule="evenodd" d="M16.5213 2.47815C14.9047 2.47815 13.5262 3.51076 13.0153 4.95619C12.7872 5.60139 12.0793 5.93957 11.4341 5.71152C10.7889 5.48347 10.4507 4.77556 10.6788 4.13035C11.5287 1.72576 13.8219 0 16.5213 0C19.2207 0 21.5139 1.72576 22.3638 4.13035C22.5919 4.77556 22.2537 5.48347 21.6085 5.71152C20.9633 5.93957 20.2554 5.60139 20.0273 4.95619C19.5164 3.51076 18.1379 2.47815 16.5213 2.47815Z" fill="#6268DC"/>
<path d="M19.8252 18.5861H13.2168C12.7606 18.5861 12.3907 18.9559 12.3907 19.4122V22.9831C12.3907 23.3209 12.5964 23.6247 12.91 23.7501L14.0667 24.2128C15.6422 24.843 17.3998 24.843 18.9753 24.2128L20.132 23.7501C20.4456 23.6247 20.6512 23.3209 20.6512 22.9831V19.4122C20.6512 18.9559 20.2814 18.5861 19.8252 18.5861Z" fill="#6268DC"/>
<path d="M9.93037 23.3262L1.66178 20.8456C1.71149 25.9911 2.01208 30.7298 3.82943 32.3452C6.00692 34.2808 9.51155 34.2808 16.5208 34.2808C23.5301 34.2808 27.0347 34.2808 29.2122 32.3452C31.0295 30.7298 31.3301 25.9911 31.3798 20.8457L23.1116 23.3261C22.9857 24.5367 22.1996 25.5921 21.0523 26.051L19.8956 26.5137C17.7293 27.3802 15.3127 27.3802 13.1463 26.5137L11.9896 26.051C10.8424 25.5921 10.0564 24.5367 9.93037 23.3262Z" fill="#6268DC"/>
<path d="M9.2665 6.19537H23.7755C27.8234 6.19537 29.8473 6.19537 31.2138 7.3072C31.4764 7.5209 31.7164 7.76094 31.9301 8.02357C33.042 9.39003 33.042 11.414 33.042 15.4619C33.042 16.489 33.042 17.0026 32.7929 17.4032C32.7444 17.4813 32.6894 17.5551 32.6286 17.624C32.3165 17.9777 31.8245 18.1253 30.8407 18.4204L23.1294 20.7338V19.4122C23.1294 17.5873 21.65 16.108 19.8252 16.108H13.2168C11.3919 16.108 9.91259 17.5873 9.91259 19.4122V20.7338L2.20126 18.4204C1.21743 18.1253 0.72552 17.9777 0.413376 17.624C0.352571 17.5551 0.297622 17.4813 0.249098 17.4032C0 17.0026 0 16.489 0 15.4619C0 11.414 0 9.39003 1.11183 8.02357C1.32553 7.76094 1.56557 7.52089 1.8282 7.3072C3.19466 6.19537 5.21861 6.19537 9.2665 6.19537Z" fill="#6268DC"/>
</svg>
